<?xml version="1.0" encoding="UTF-8"?>
<svg version="1.1" xmlns="http://www.w3.org/2000/svg" width="576" height="576">
<path d="M0 0 C0.96157013 -0.00705963 1.92314026 -0.01411926 2.91384888 -0.02139282 C43.0900843 -0.24933793 43.0900843 -0.24933793 61.62109375 3.203125 C62.72291992 3.40180176 63.82474609 3.60047852 64.95996094 3.80517578 C106.3476452 11.4515304 145.30691326 27.79956186 179.62109375 52.203125 C180.18183594 52.59951172 180.74257813 52.99589844 181.3203125 53.40429688 C189.8555246 59.48431833 197.75625899 66.29479188 205.62109375 73.203125 C206.51957031 73.98816406 207.41804688 74.77320312 208.34375 75.58203125 C217.40574948 83.61001494 225.91651572 91.99877949 233.45703125 101.484375 C234.85123075 103.23593249 236.271518 104.96719214 237.72265625 106.671875 C270.46183364 145.24457854 291.08830509 194.4434614 298.62109375 244.203125 C298.79987061 245.27715576 298.97864746 246.35118652 299.1628418 247.45776367 C300.97241862 259.62988819 300.9587769 271.78560223 300.93676758 284.07250977 C300.93362076 287.73419367 300.95709496 291.39505673 300.98242188 295.05664062 C301.03590442 314.59969109 299.31928816 333.5669194 294.93359375 352.640625 C294.55231323 354.31729248 294.55231323 354.31729248 294.16333008 356.02783203 C286.42435481 388.85998871 272.51832632 422.05088806 252.81396484 449.53222656 C251.58818643 451.24921949 250.39392675 452.98516469 249.203125 454.7265625 C243.6267351 462.80643339 237.50775679 470.29489406 231.00244141 477.64257812 C229.77794927 479.02592095 228.56396541 480.41854966 227.3515625 481.8125 C217.61314138 492.86985385 207.23092261 503.12181715 195.62109375 512.203125 C194.88375 512.81929687 194.14640625 513.43546875 193.38671875 514.0703125 C148.15549336 551.6590205 86.41476357 576.15227568 27.33203125 576.40625 C26.2711026 576.41195007 25.21017395 576.41765015 24.11709595 576.42352295 C21.87657653 576.43292163 19.6360436 576.43948637 17.39550781 576.44335938 C14.05377276 576.4529593 10.71268221 576.48398866 7.37109375 576.515625 C-12.15546336 576.61262077 -31.29871447 574.73745522 -50.37890625 570.515625 C-52.11926147 570.13434448 -52.11926147 570.13434448 -53.89477539 569.74536133 C-95.61326659 560.24488562 -135.27361239 540.18738797 -168.37890625 513.203125 C-168.88808594 512.79545898 -169.39726562 512.38779297 -169.921875 511.96777344 C-178.33165954 505.20360723 -186.04371987 497.74420153 -193.69140625 490.140625 C-194.61042725 489.23086914 -195.52944824 488.32111328 -196.47631836 487.38378906 C-213.56189855 470.21951615 -227.53854915 450.26653956 -239.37890625 429.203125 C-239.85457031 428.36023926 -240.33023438 427.51735352 -240.8203125 426.64892578 C-248.28203442 413.28847886 -254.16456845 399.5782143 -259.37890625 385.203125 C-259.66604492 384.42936523 -259.95318359 383.65560547 -260.24902344 382.85839844 C-267.66563729 362.75570686 -272.0823355 341.48116901 -274.37890625 320.203125 C-274.52030029 318.9178894 -274.52030029 318.9178894 -274.66455078 317.60668945 C-275.58367065 308.13186256 -275.62233364 298.65152806 -275.62890625 289.140625 C-275.62958099 288.25906738 -275.63025574 287.37750977 -275.63095093 286.46923828 C-275.5626093 229.96668368 -259.28224169 172.58347237 -226.37890625 126.203125 C-225.9705957 125.62498047 -225.56228516 125.04683594 -225.14160156 124.45117188 C-219.07179619 115.89315126 -212.67810183 107.7098935 -205.77636719 99.80541992 C-204.77916998 98.66205771 -203.78831209 97.51315377 -202.80175781 96.3605957 C-192.42040013 84.31197412 -181.04213636 72.84680695 -168.37890625 63.203125 C-167.37988281 62.41035156 -166.38085938 61.61757813 -165.3515625 60.80078125 C-119.03557806 24.17685855 -59.44470266 0.29161477 0 0 Z " fill="#E8E9E9" transform="translate(275.37890625,-0.203125)"/>
<path d="M0 0 C4.92168032 0.46430946 7.80715115 2.75697285 11.1875 6.25 C12.55971895 8.76573474 12.3962663 10.48771427 12.3125 13.3125 C12.82039063 12.86519531 13.32828125 12.41789063 13.8515625 11.95703125 C15.282775 10.70003001 16.7192688 9.44902416 18.16015625 8.203125 C19.44377398 7.07559146 20.70937918 5.92614051 21.93359375 4.734375 C24.45361662 2.35776807 26.21586411 1.3325565 29.625 0.625 C34.75459952 1.58136601 38.21275103 4.18888174 42.3125 7.3125 C41.549375 8.034375 40.78625 8.75625 40 9.5 C36.15472297 13.52412713 34.15125917 16.19899836 33.9375 21.8125 C34.08820188 25.76351007 34.73312759 28.19946433 37.3125 31.3125 C42.03977374 35.46327694 44.80465683 36.66124929 50.9921875 36.6015625 C55.89046355 35.99133956 59.00714151 32.68551203 62.3125 29.3125 C69.79948293 37.56346078 69.79948293 37.56346078 70 42.5 C68.72582303 49.56589047 64.74480284 53.11481144 59.3125 57.3125 C58.99796875 56.75820312 58.6834375 56.20390625 58.359375 55.6328125 C57.93140625 54.90835938 57.5034375 54.18390625 57.0625 53.4375 C56.64484375 52.71820313 56.2271875 51.99890625 55.796875 51.2578125 C54.06323682 48.98583404 53.00958609 48.23829488 50.3125 47.3125 C47.20688108 46.9210033 47.20688108 46.9210033 43.875 46.9375 C42.20630859 46.89496094 42.20630859 46.89496094 40.50390625 46.8515625 C36.61981502 47.41254508 35.05797538 48.5524983 32.3125 51.3125 C29.27699996 55.81975763 29.69894684 61.09351074 30.3125 66.3125 C32.50960981 70.78809406 35.29549631 73.41133067 39.3125 76.3125 C38.14283248 77.33330074 36.95062971 78.32830259 35.75 79.3125 C35.08871094 79.869375 34.42742187 80.42625 33.74609375 81 C30.23318662 82.8946016 28.26020643 82.973239 24.3125 82.3125 C21.46975651 80.35137387 19.21295068 77.96595037 16.875 75.4375 C16.23884766 74.78652344 15.60269531 74.13554687 14.94726562 73.46484375 C10.3125 68.63592575 10.3125 68.63592575 10.3125 66.3125 C9.6525 66.3125 8.9925 66.3125 8.3125 66.3125 C8.27125 67.199375 8.23 68.08625 8.1875 69 C7.25678668 72.52341473 6.12830721 74.2109491 3.19140625 76.390625 C-0.38367404 78.14471845 -3.84609677 78.21802415 -7.6875 77.3125 C-11.31368614 74.4417693 -13.37949537 72.20452846 -14.125 67.625 C-13.50790805 62.95273235 -11.14090213 60.40632881 -7.6875 57.3125 C-6.04343251 56.2757648 -4.38053606 55.26717621 -2.6875 54.3125 C-3.25339844 53.74402344 -3.81929687 53.17554688 -4.40234375 52.58984375 C-7.69958242 49.11876122 -10.3211019 46.22053007 -12.125 41.75 C-11.45592037 36.49294578 -8.38823075 33.90438573 -4.6875 30.3125 C-4.09195313 29.70535156 -3.49640625 29.09820312 -2.8828125 28.47265625 C-1.50183328 27.06855058 -0.0971755 25.68779317 1.3125 24.3125 C0.49845703 23.87550781 0.49845703 23.87550781 -0.33203125 23.4296875 C-5.03375373 20.73572759 -8.05864901 18.74200329 -9.6875 13.3125 C-9.6875 8.73614516 -9.21158359 6.91519613 -6.1875 3.4375 C-5.3625 2.73625 -4.5375 2.035 -3.6875 1.3125 C-2.6875 0.3125 -2.6875 0.3125 0 0 Z " fill="#3A2F6B" transform="translate(146.6875,181.6875)"/>
<path d="M0 0 C4.26984176 2.58176478 6.04363017 5.46945935 8 10 C11.18559952 8.60366893 13.23943845 6.95442507 15.625 4.4375 C18.7571907 1.14801588 20.00477977 0.10120884 24.6875 -0.375 C29.7008134 -0.35666979 32.23431651 1.86193042 36 5 C35.57847656 5.55429687 35.15695313 6.10859375 34.72265625 6.6796875 C34.17480469 7.40414063 33.62695312 8.12859375 33.0625 8.875 C32.51722656 9.59429687 31.97195312 10.31359375 31.41015625 11.0546875 C28.23414289 15.43600233 28.42580626 19.73520949 29 25 C30.7956719 28.79853672 32.29616315 30.52011124 35.75 32.875 C41.08268714 34.72093017 45.62327695 34.75662058 50.8125 32.6875 C53.52966383 31.2490015 54.96731239 30.17918761 57 28 C58.3511501 29.52607578 59.68032161 31.07162856 61 32.625 C61.7425 33.48351562 62.485 34.34203125 63.25 35.2265625 C65.33473352 38.53049285 65.59953789 40.16193265 65 44 C63.57421875 46.23046875 63.57421875 46.23046875 61.6875 48.1875 C61.07261719 48.84105469 60.45773438 49.49460937 59.82421875 50.16796875 C58.92123047 51.07482422 58.92123047 51.07482422 58 52 C57.42894531 52.57363281 56.85789062 53.14726562 56.26953125 53.73828125 C55.85058594 54.15464844 55.43164062 54.57101562 55 55 C52 54 52 54 50.1875 51.125 C47.68248368 47.54640526 46.08887571 46.4431326 42 45 C36.41616093 44.17276458 33.27976257 45.59991538 28.69921875 48.515625 C26.06025026 50.82093081 25.1533049 52.91973526 24.6640625 56.3671875 C24.57451668 62.11602943 25.0515695 65.50317637 29 70 C31.10575643 71.83300909 31.10575643 71.83300909 33 73 C31.70347951 75.89223802 30.46424662 77.98328323 28 80 C23.80028092 80.87297531 20.10027369 80.62872782 16.375 78.5 C13.13740407 75.09200428 10.04649056 71.57880746 7 68 C6.505 67.505 6.505 67.505 6 67 C5.62875 68.0725 5.2575 69.145 4.875 70.25 C3.11897137 74.29543043 1.02903564 76.06296363 -3 78 C-7.50188515 78.72351726 -9.40696936 78.34044352 -13.375 76.0625 C-16.39917117 73.19320552 -17.10891264 70.3117965 -17.29296875 66.21484375 C-16.77529609 62.30123845 -14.89699262 60.53486854 -12 58 C-9.68752802 56.74125237 -7.49785485 55.88159583 -5 55 C-5.62648437 54.38511719 -6.25296875 53.77023437 -6.8984375 53.13671875 C-8.12433594 51.92435547 -8.12433594 51.92435547 -9.375 50.6875 C-10.59316406 49.48673828 -10.59316406 49.48673828 -11.8359375 48.26171875 C-14.78519239 45.17937474 -15.92842847 43.53678647 -16.5 39.25 C-16.39460399 34.8395823 -14.65051959 32.64192085 -11.6640625 29.53515625 C-9.53313007 27.56929606 -7.29480361 25.77027707 -5 24 C-4.67 23.34 -4.34 22.68 -4 22 C-5.11375 21.9071875 -5.11375 21.9071875 -6.25 21.8125 C-9.84889332 20.74919061 -10.91859246 19.04777533 -13 16 C-14.43304064 13.13391871 -14.30644155 11.18699217 -14 8 C-12.34976991 4.93528698 -10.943924 2.69221093 -8.125 0.625 C-5.20173359 -0.23478424 -3.03665023 -0.37183472 0 0 Z " fill="#382E63" transform="translate(148,290)"/>
<path d="M0 0 C-0.33 0.99 -0.66 1.98 -1 3 C-1.66 3 -2.32 3 -3 3 C-3.309375 3.78375 -3.61875 4.5675 -3.9375 5.375 C-5 8 -5 8 -6 10 C-6.79419631 15.40857743 -6.67614132 19.79584775 -3.5 24.375 C0.24185417 28.71414545 4.38123269 31.40820911 10.078125 32.33984375 C14.79485278 32.56487847 17.971863 31.30179257 22 29 C22.66 29 23.32 29 24 29 C24.495 27.515 24.495 27.515 25 26 C28.50373216 26.57881038 30.16793567 27.7850792 32.625 30.3125 C33.51058594 31.20388672 33.51058594 31.20388672 34.4140625 32.11328125 C37.1062959 35.31611063 38.01444055 37.20577002 37.9375 41.4375 C36.35410329 47.45440748 31.76768381 50.32207249 27 54 C26.55269531 53.59007812 26.10539062 53.18015625 25.64453125 52.7578125 C24.73767578 51.94957031 24.73767578 51.94957031 23.8125 51.125 C23.22082031 50.59132813 22.62914062 50.05765625 22.01953125 49.5078125 C17.24843589 45.94564072 12.53645253 45.44506693 6.7265625 45.5546875 C2.24016624 46.28742271 -0.20933448 48.53353229 -3 52 C-6.00394134 56.45746134 -6.91250384 60.7035103 -6 66 C-4.36015132 70.42116065 -2.02061956 74.37525653 1 78 C-3.17554977 79.59068563 -6.55617239 80.79988897 -11 80 C-13.93052281 77.92705266 -16.4575079 75.52626342 -19 73 C-19.825 72.195625 -20.65 71.39125 -21.5 70.5625 C-21.995 70.046875 -22.49 69.53125 -23 69 C-23.639375 69.969375 -24.27875 70.93875 -24.9375 71.9375 C-27.23317954 74.69100736 -28.95867007 75.57517749 -32.5 76.125 C-35.97863452 76.30472945 -36.89127539 76.06568778 -40 74.1875 C-42.99462319 70.91213088 -43.45018038 68.5122367 -43.42578125 64.0390625 C-42.64170319 60.28411985 -40.10042959 59.04628353 -37 57 C-36.01 56.505 -36.01 56.505 -35 56 C-35.78246094 55.15695312 -36.56492187 54.31390625 -37.37109375 53.4453125 C-38.39334825 52.33865166 -39.41547716 51.23187479 -40.4375 50.125 C-40.95376953 49.56941406 -41.47003906 49.01382813 -42.00195312 48.44140625 C-46.75541879 43.28405134 -46.75541879 43.28405134 -47.5 39.375 C-46.74168112 34.25634753 -43.5567673 31.57961591 -40 28 C-38.7934375 26.7625 -38.7934375 26.7625 -37.5625 25.5 C-37.046875 25.005 -36.53125 24.51 -36 24 C-37.20381448 21.50638429 -38.45428722 19.31856917 -40 17 C-40.39955777 13.90342731 -40.63837868 11.96184702 -40 9 C-36.98675497 5.21412804 -36.98675497 5.21412804 -34 4 C-30.79834371 3.69508035 -28.05255876 3.98248041 -25 5 C-22.9375 7.0625 -22.9375 7.0625 -22 9 C-18.77590287 7.59389596 -16.80616615 5.88892926 -14.375 3.375 C-9.81576804 -0.77992271 -5.92701494 -0.76516791 0 0 Z " fill="#392E65" transform="translate(131,235)"/>
<path d="M0 0 C6.4040625 -0.0928125 6.4040625 -0.0928125 12.9375 -0.1875 C14.26515381 -0.21481201 15.59280762 -0.24212402 16.96069336 -0.27026367 C25.48145575 -0.32971531 32.13479836 0.44750835 39.3125 5.1875 C45.68881235 11.86038502 46.44379163 17.47511543 46.43359375 26.6328125 C45.62468904 32.91457699 42.71794481 36.9254113 38 41 C32.03172296 45.07923523 26.9630967 46.13282314 19.82421875 46.09765625 C18.25933716 46.09390991 18.25933716 46.09390991 16.6628418 46.09008789 C14.69504761 46.07643188 14.69504761 46.07643188 12.6875 46.0625 C8.500625 46.041875 4.31375 46.02125 0 46 C0 30.82 0 15.64 0 0 Z " fill="#603F6D" transform="translate(224,309)"/>
<path d="M0 0 C6.2184375 -0.0928125 6.2184375 -0.0928125 12.5625 -0.1875 C13.85615479 -0.21481201 15.14980957 -0.24212402 16.48266602 -0.27026367 C23.53584196 -0.32116344 29.22309738 -0.32807787 34.7421875 4.53515625 C39.04099969 10.33114096 39.5723206 13.85699867 39 21 C37.40365058 26.28790745 34.59371382 28.30547674 30.03515625 31.01953125 C25.59717475 33.15759911 21.65698196 33.10793502 16.75 33.0625 C15.48671875 33.05347656 14.2234375 33.04445313 12.921875 33.03515625 C11.95765625 33.02355469 10.9934375 33.01195312 10 33 C10 37.29 10 41.58 10 46 C6.7 46 3.4 46 0 46 C0 30.82 0 15.64 0 0 Z " fill="#2F2F8A" transform="translate(194,252)"/>
<path d="M0 0 C3.63 0 7.26 0 11 0 C11.33 8.58 11.66 17.16 12 26 C13.876875 23.855 15.75375 21.71 17.6875 19.5 C21.17026224 15.77845306 23.69625599 13.29950876 28.7578125 12.13671875 C31.93306302 12.18207947 34.88355005 12.40323299 38 13 C29.42585551 23.24714829 29.42585551 23.24714829 25 27 C24.34 27 23.68 27 23 27 C24.53914994 29.02279587 26.08061641 31.04370331 27.625 33.0625 C28.0792334 33.65651611 28.5334668 34.25053223 29.00146484 34.86254883 C31.45681215 38.05502405 33.95429821 41.17012057 36.625 44.1875 C39 47 39 47 39 49 C34.74478364 49.86886617 31.23171903 50.07371975 27 49 C22.49132679 45.50928501 19.23490808 40.63585253 16 36 C13.93902794 37.15866671 13.93902794 37.15866671 12 39 C11.3049261 41.49407252 11.3049261 41.49407252 11.25 44.1875 C11.12625 46.5696875 11.12625 46.5696875 11 49 C7.37 49 3.74 49 0 49 C0 32.83 0 16.66 0 0 Z " fill="#57468B" transform="translate(468,249)"/>
<path d="M0 0 C3.42932292 2.90746943 4.97153749 4.94307498 7 9 C7 11.97 7 14.94 7 18 C-1.91 18 -10.82 18 -20 18 C-17.67748574 22.88495525 -17.67748574 22.88495525 -15 24 C-9.71089889 24.40253336 -4.78709845 24.55311917 0 22 C2.0625 23.75 2.0625 23.75 4 26 C4.125 28.0625 4.125 28.0625 3 30 C-1.44954896 32.70009722 -4.82460956 33.40904862 -10 33.375 C-11.175625 33.38273437 -12.35125 33.39046875 -13.5625 33.3984375 C-18.97107425 32.77153458 -22.84769516 30.75575437 -26.3125 26.5625 C-26.80363281 25.98628906 -27.29476563 25.41007812 -27.80078125 24.81640625 C-30.64750782 20.50458913 -30.81188839 14.982766 -30 10 C-27.77174288 4.67599634 -24.78292671 0.97620066 -19.5625 -1.5625 C-12.59142512 -4.10379486 -6.49218481 -3.43703902 0 0 Z " fill="#CC6230" transform="translate(305,322)"/>
<path d="M0 0 C3.33827882 2.818991 4.31660166 4.24597066 5.8125 8.375 C6.1738341 12.84003049 6.09455865 17.27422387 6 21.75 C5.97969727 23.56951172 5.97969727 23.56951172 5.95898438 25.42578125 C5.92374582 28.40931206 5.87447525 31.39192458 5.8125 34.375 C2.5125 34.375 -0.7875 34.375 -4.1875 34.375 C-4.5175 33.715 -4.8475 33.055 -5.1875 32.375 C-6.1775 33.035 -7.1675 33.695 -8.1875 34.375 C-12.86416844 35.01610173 -17.96633619 35.49390087 -22.2734375 33.32421875 C-24.38866804 31.57528423 -25.95711606 29.83576789 -27.1875 27.375 C-27.56862297 23.33509652 -27.6115682 21.08178033 -25.5 17.5625 C-21.02254889 13.32707327 -16.88925732 13.13758398 -10.875 13.25 C-9.62074219 13.26804687 -8.36648438 13.28609375 -7.07421875 13.3046875 C-5.64529297 13.33949219 -5.64529297 13.33949219 -4.1875 13.375 C-5.30604586 9.64885847 -5.30604586 9.64885847 -8.1875 7.375 C-13.47660111 6.97246664 -18.40040155 6.82188083 -23.1875 9.375 C-26.1875 3.625 -26.1875 3.625 -26.1875 1.375 C-18.41128602 -2.35758271 -8.00657706 -4.07142961 0 0 Z " fill="#CF9132" transform="translate(414.1875,263.625)"/>
<path d="M0 0 C3.3 0 6.6 0 10 0 C10.03867188 2.42085938 10.03867188 2.42085938 10.078125 4.890625 C10.13440338 7.01044381 10.19175077 9.13023443 10.25 11.25 C10.26417969 12.31347656 10.27835938 13.37695312 10.29296875 14.47265625 C10.32519531 15.49746094 10.35742188 16.52226562 10.390625 17.578125 C10.41157227 18.52075195 10.43251953 19.46337891 10.45410156 20.43457031 C11.1547208 23.72710473 12.35850842 24.96706975 15 27 C18.13086198 26.93610486 20.11481669 26.65698528 22.65161133 24.77416992 C24.4840448 22.36310818 24.4285957 20.68483549 24.51171875 17.67578125 C24.54716797 16.64775391 24.58261719 15.61972656 24.61914062 14.56054688 C24.64169922 13.48869141 24.66425781 12.41683594 24.6875 11.3125 C24.72166016 10.22904297 24.75582031 9.14558594 24.79101562 8.02929688 C24.8735375 5.35323023 24.93844386 2.67663097 25 0 C28.63 0 32.26 0 36 0 C36 11.88 36 23.76 36 36 C32.7 36 29.4 36 26 36 C25.67 35.01 25.34 34.02 25 33 C24.21625 33.495 23.4325 33.99 22.625 34.5 C17.93062203 36.44250123 14.01534008 36.72579718 9 36 C3.94300463 33.60942037 1.90607839 31.20039884 0 26 C-0.36281295 21.53512616 -0.28205741 17.10071741 -0.1875 12.625 C-0.17396484 11.41199219 -0.16042969 10.19898438 -0.14648438 8.94921875 C-0.11124582 5.96568794 -0.06197525 2.98307542 0 0 Z " fill="#76465C" transform="translate(241,262)"/>
<path d="M0 0 C-1.75 5.75 -1.75 5.75 -4 8 C-4.845625 7.67 -5.69125 7.34 -6.5625 7 C-10.74266888 5.78395087 -14.97751725 4.98875862 -19 7 C-19.65213292 9.02463255 -19.65213292 9.02463255 -20 11 C-19.13117188 11.10957031 -18.26234375 11.21914063 -17.3671875 11.33203125 C-5.4901399 12.96612169 -5.4901399 12.96612169 -1 16 C1.46751239 19.70126859 1.30721156 21.62223532 1 26 C0.07241818 29.33929455 -0.8288692 29.89955366 -3.875 31.6875 C-10.68357996 34.54710358 -19.0239551 35.53109074 -26.18359375 33.328125 C-27.8125 32.5 -27.8125 32.5 -30 31 C-29.25 25.25 -29.25 25.25 -27 23 C-25.824375 23.495 -24.64875 23.99 -23.4375 24.5 C-19.50695094 25.98006466 -16.22511081 26.33800887 -12 26 C-11.34 25.67 -10.68 25.34 -10 25 C-10 24.01 -10 23.02 -10 22 C-11.02480469 21.76925781 -12.04960937 21.53851563 -13.10546875 21.30078125 C-14.46637146 20.97228749 -15.82703647 20.64280789 -17.1875 20.3125 C-17.86103516 20.16361328 -18.53457031 20.01472656 -19.22851562 19.86132812 C-24.05406439 18.66082575 -26.82029159 17.02032098 -30 13 C-30.41517191 9.61931445 -30.28214991 7.09724964 -29.4375 3.8125 C-22.5641774 -4.85386327 -9.39092147 -3.61745819 0 0 Z " fill="#E3690C" transform="translate(353,264)"/>
<path d="M0 0 C15.31034483 0 15.31034483 0 21 3 C24.50006922 6.58981458 25.87062128 9.285732 26.25 14.3125 C25.91022875 19.32412594 24.30829659 22.37590768 21.1875 26.25 C14.6814424 31.45484608 8.24141709 30 0 30 C0 20.1 0 10.2 0 0 Z " fill="#E3E3E6" transform="translate(234,317)"/>
<path d="M0 0 C3.60394709 1.39854663 5.81913703 3.13379442 7.76953125 6.4609375 C6.67200895 9.45418013 6.09270233 10.30704651 3.14453125 11.7109375 C2.36078125 11.9584375 1.57703125 12.2059375 0.76953125 12.4609375 C-0.25140625 11.4709375 -0.25140625 11.4709375 -1.29296875 10.4609375 C-4.96132849 7.96333087 -6.87244267 7.8270428 -11.23046875 8.4609375 C-13.87284721 9.68528905 -13.87284721 9.68528905 -15.23046875 12.4609375 C-15.97571041 17.08604553 -16.09776533 21.00387924 -13.66796875 25.0859375 C-10.23908722 27.02017836 -8.11745012 26.99707286 -4.23046875 26.4609375 C-0.84721345 24.5963069 -0.84721345 24.5963069 1.76953125 22.4609375 C3.74953125 23.7809375 5.72953125 25.1009375 7.76953125 26.4609375 C7.43855187 29.55007835 6.76668426 30.4636306 4.45703125 32.6484375 C-1.08026911 36.38289589 -7.74969388 36.32179231 -14.23046875 35.4609375 C-18.70296078 33.51807653 -22.00795468 30.83626583 -25.23046875 27.2109375 C-27.28848786 21.55138496 -27.8167505 16.44778121 -26.10546875 10.6484375 C-20.0668651 0.38281129 -11.43502294 -2.76363076 0 0 Z " fill="#906A5F" transform="translate(454.23046875,262.5390625)"/>
<path d="M0 0 C3.3 0 6.6 0 10 0 C13.15257999 5.95487332 15.606622 12.02281041 17.94921875 18.33984375 C18.74951902 20.88214516 18.74951902 20.88214516 20 22 C22.97 14.74 25.94 7.48 29 0 C32.3 0 35.6 0 39 0 C36.79093682 8.06722733 33.74540059 15.50617546 30.3125 23.125 C29.80138672 24.27226562 29.29027344 25.41953125 28.76367188 26.6015625 C27.51447768 29.40349341 26.25983931 32.20284346 25 35 C21.37 35 17.74 35 14 35 C12.41479447 31.37580874 10.83179213 27.75068083 9.25 24.125 C8.58484375 22.60519531 8.58484375 22.60519531 7.90625 21.0546875 C0 2.91681985 0 2.91681985 0 0 Z " fill="#5E3D7B" transform="translate(314,320)"/>
<path d="M0 0 C3.3 0 6.6 0 10 0 C10 2.64 10 5.28 10 8 C12.97 8 15.94 8 19 8 C19 10.64 19 13.28 19 16 C16.03 16 13.06 16 10 16 C10.14019692 18.81288705 10.28687955 21.62516885 10.4375 24.4375 C10.47681641 25.23994141 10.51613281 26.04238281 10.55664062 26.86914062 C10.4054296 30.75239561 10.4054296 30.75239561 12 34 C14.33297433 34.04092937 16.66705225 34.04241723 19 34 C20.25664978 36.90600261 21 38.79604584 21 42 C16.79866307 44.10066847 11.56281034 43.54135038 7 43 C4.19830602 41.6436659 3.08389624 40.42182535 1 38 C0.05862745 35.17588235 -0.11725382 33.47081968 -0.09765625 30.55078125 C-0.09443359 29.70322266 -0.09121094 28.85566406 -0.08789062 27.98242188 C-0.07951172 27.10134766 -0.07113281 26.22027344 -0.0625 25.3125 C-0.05798828 24.41982422 -0.05347656 23.52714844 -0.04882812 22.60742188 C-0.03704983 20.40488013 -0.02060164 18.20247401 0 16 C-1.98 16 -3.96 16 -6 16 C-6 13.69 -6 11.38 -6 9 C-4.02 9 -2.04 9 0 9 C0 6.03 0 3.06 0 0 Z " fill="#DE8019" transform="translate(362,255)"/>
<path d="M0 0 C3.3 0 6.6 0 10 0 C10 16.17 10 32.34 10 49 C6.7 49 3.4 49 0 49 C0 32.83 0 16.66 0 0 Z " fill="#CF5915" transform="translate(306,249)"/>
<path d="M0 0 C3.3 0 6.6 0 10 0 C10 16.17 10 32.34 10 49 C6.7 49 3.4 49 0 49 C0 32.83 0 16.66 0 0 Z " fill="#AA4C24" transform="translate(286,249)"/>
<path d="M0 0 C12.17807634 -0.49204349 12.17807634 -0.49204349 15.890625 1.73046875 C18.24391096 4.26243012 18.66006328 5.17074133 18.5625 8.5625 C18.56443359 9.70912109 18.56443359 9.70912109 18.56640625 10.87890625 C18 13 18 13 16.41796875 14.765625 C11.45544271 17.29899855 5.41155793 16.15032105 0 16 C0 10.72 0 5.44 0 0 Z " fill="#E8EAEC" transform="translate(204,260)"/>
<path d="M0 0 C3.5625 0.375 3.5625 0.375 5.5625 2 C6.90430884 5.18679601 6.49197204 7.08609893 5.5625 10.375 C3.5625 12.375 3.5625 12.375 0.125 12.75 C-3.4375 12.375 -3.4375 12.375 -5.4375 10.75 C-6.77930884 7.56320399 -6.36697204 5.66390107 -5.4375 2.375 C-3.4375 0.375 -3.4375 0.375 0 0 Z " fill="#42348F" transform="translate(359.4375,342.625)"/>
<path d="M0 0 C4.62 0 9.24 0 14 0 C14 0.33 14 0.66 14 1 C10.37 1.33 6.74 1.66 3 2 C2.67 16.19 2.34 30.38 2 45 C6.95 45 11.9 45 17 45 C17 45.33 17 45.66 17 46 C11.39 46 5.78 46 0 46 C0 30.82 0 15.64 0 0 Z " fill="#32348F" transform="translate(224,309)"/>
<path d="M0 0 C2.30936238 1.81093884 3.38001127 3.46876761 5 6 C5 6.66 5 7.32 5 8 C-0.94 8 -6.88 8 -13 8 C-12 3 -12 3 -10.4375 1.1875 C-6.95186898 -0.51062793 -3.73661864 -0.93970409 0 0 Z " fill="#E6DBD7" transform="translate(298,327)"/>
<path d="M0 0 C1.50433594 0.01353516 1.50433594 0.01353516 3.0390625 0.02734375 C3.80992187 0.03894531 4.58078125 0.05054688 5.375 0.0625 C5.6328125 4.765625 5.6328125 4.765625 3.3125 7.4375 C-0.47027254 9.53009758 -2.50315019 9.09296245 -6.625 8.0625 C-7.625 7.0625 -7.625 7.0625 -7.6875 4 C-7.666875 3.030625 -7.64625 2.06125 -7.625 1.0625 C-4.98041621 -0.25979189 -2.94738699 -0.03427194 0 0 Z " fill="#E8E7E4" transform="translate(404.625,282.9375)"/>
<path d="M0 0 C1.65 0 3.3 0 5 0 C5 5.61 5 11.22 5 17 C3.68 17 2.36 17 1 17 C0.8046875 14.98177083 0.609375 12.96354167 0.4140625 10.9453125 C0.13625251 8.77331755 0.13625251 8.77331755 -2 7 C-1.34 4.69 -0.68 2.38 0 0 Z " fill="#EDF0F1" transform="translate(235,264)"/>
<path d="M0 0 C2.4375 0.125 2.4375 0.125 5 1 C6.3125 3.5625 6.3125 3.5625 7 6 C6.175 6.45375 5.35 6.9075 4.5 7.375 C3.2625 8.179375 3.2625 8.179375 2 9 C2 9.66 2 10.32 2 11 C2.99 11 3.98 11 5 11 C5.33 10.01 5.66 9.02 6 8 C6.5625 9.9375 6.5625 9.9375 7 12 C6 13 6 13 3.625 13.375 C1 13 1 13 -0.875 10.9375 C-2.29956987 7.21778978 -1.88590902 4.83893908 -1 1 C-0.67 0.67 -0.34 0.34 0 0 Z " fill="#EDF4F5" transform="translate(300,497)"/>
<path d="M0 0 C0 0.99 0 1.98 0 3 C-1.65 2.67 -3.3 2.34 -5 2 C-5.33 2.99 -5.66 3.98 -6 5 C-3.69 5.33 -1.38 5.66 1 6 C1.33 7.65 1.66 9.3 2 11 C1.01 11.495 1.01 11.495 0 12 C-0.33 11.34 -0.66 10.68 -1 10 C-2.88263881 9.09656316 -2.88263881 9.09656316 -5.0625 8.375 C-5.79597656 8.11460937 -6.52945312 7.85421875 -7.28515625 7.5859375 C-7.85105469 7.39257812 -8.41695313 7.19921875 -9 7 C-9 4.69 -9 2.38 -9 0 C-5.93109813 -1.53445094 -3.29905734 -0.54984289 0 0 Z " fill="#EBF3F6" transform="translate(307,203)"/>
<path d="M0 0 C0.33 0.66 0.66 1.32 1 2 C0.01 2.33 -0.98 2.66 -2 3 C-1.855625 3.73605469 -1.71125 4.47210938 -1.5625 5.23046875 C-1.376875 6.20628906 -1.19125 7.18210937 -1 8.1875 C-0.814375 9.15042969 -0.62875 10.11335938 -0.4375 11.10546875 C-0.03122388 13.7934206 0.07933572 16.28771019 0 19 C-0.99 19 -1.98 19 -3 19 C-4.32 12.73 -5.64 6.46 -7 0 C-3 -1 -3 -1 0 0 Z " fill="#EEF6F7" transform="translate(264,67)"/>
<path d="M0 0 C0.33 0 0.66 0 1 0 C1 1.65 1 3.3 1 5 C2.65 5 4.3 5 6 5 C6.66 6.98 7.32 8.96 8 11 C5.36 11.99 2.72 12.98 0 14 C0 9.38 0 4.76 0 0 Z " fill="#EDF3F4" transform="translate(251,263)"/>
<path d="M0 0 C2 2 2 2 2.4375 5.4375 C2 9 2 9 -0.1875 10.9375 C-3.03812837 12.01440405 -4.98560902 12.25837637 -8 12 C-8.33 10.68 -8.66 9.36 -9 8 C-6.69 8 -4.38 8 -2 8 C-1.855625 6.865625 -1.71125 5.73125 -1.5625 4.5625 C-1 1 -1 1 0 0 Z " fill="#EAF5F7" transform="translate(73,98)"/>
<path d="M0 0 C0.33 0.99 0.66 1.98 1 3 C-0.98 3.99 -0.98 3.99 -3 5 C-2.67 8.3 -2.34 11.6 -2 15 C-2.66 15 -3.32 15 -4 15 C-4.41659944 13.06685873 -4.80764837 11.12819653 -5.1875 9.1875 C-5.40792969 8.10855469 -5.62835938 7.02960938 -5.85546875 5.91796875 C-6 3 -6 3 -4.73828125 1.11328125 C-3 0 -3 0 0 0 Z " fill="#ECF5F8" transform="translate(340,481)"/>
<path d="M0 0 C3.93769336 3.93769336 3.14356123 9.52321262 3.23046875 14.79296875 C3 17 3 17 1 19 C0.63923999 16.02149379 0.28609584 13.04243216 -0.0625 10.0625 C-0.16626953 9.21236328 -0.27003906 8.36222656 -0.37695312 7.48632812 C-0.47041016 6.67744141 -0.56386719 5.86855469 -0.66015625 5.03515625 C-0.74918213 4.2862915 -0.83820801 3.53742676 -0.92993164 2.76586914 C-0.9530542 2.18313232 -0.97617676 1.60039551 -1 1 C-0.67 0.67 -0.34 0.34 0 0 Z " fill="#F1F6F6" transform="translate(489,213)"/>
<path d="M0 0 C0 1.32 0 2.64 0 4 C-0.33 3.34 -0.66 2.68 -1 2 C-3.90802461 4.21928194 -5.95312762 5.92969143 -8 9 C-8.625 6.125 -8.625 6.125 -9 3 C-5.95442672 -0.04557328 -4.19574719 -0.1104144 0 0 Z " fill="#EBF3F5" transform="translate(429,268)"/>
<path d="M0 0 C0 0.66 0 1.32 0 2 C-4.53701494 3.45184478 -8.18061476 4.23509196 -13 4 C-13 3.34 -13 2.68 -13 2 C-8.49646738 0.24252386 -4.82360189 -0.19294408 0 0 Z " fill="#EBF4F5" transform="translate(254,93)"/>
<path d="M0 0 C3 1 3 1 3.94921875 2.890625 C6.41063747 10.75674619 6.41063747 10.75674619 6 15 C4 14 4 14 2.9296875 11.09375 C2.58164062 9.9078125 2.23359375 8.721875 1.875 7.5 C1.52179688 6.3140625 1.16859375 5.128125 0.8046875 3.90625 C0 1 0 1 0 0 Z " fill="#F1F6F6" transform="translate(346,240)"/>
<path d="M0 0 C0.66 0 1.32 0 2 0 C1.979375 1.051875 1.95875 2.10375 1.9375 3.1875 C1.98896802 6.32704904 2.26517187 8.96883396 3 12 C2.01 12 1.02 12 0 12 C-0.39063507 10.56666979 -0.76198474 9.12807321 -1.125 7.6875 C-1.33382812 6.88699219 -1.54265625 6.08648437 -1.7578125 5.26171875 C-2 3 -2 3 0 0 Z " fill="#ECF3F5" transform="translate(175,170)"/>
<path d="M0 0 C0 0.66 0 1.32 0 2 C-1.546875 2.0928125 -1.546875 2.0928125 -3.125 2.1875 C-7.88462827 3.18548657 -9.53592963 4.70490867 -13 8 C-12.06601394 4.85841051 -11.33205059 3.2674852 -8.75 1.1875 C-5.62298529 -0.16280181 -3.3717092 -0.23523553 0 0 Z " fill="#483A8C" transform="translate(148,290)"/>
<path d="M0 0 C0.66 0.33 1.32 0.66 2 1 C2 1.66 2 2.32 2 3 C1.34 3 0.68 3 0 3 C0.33 5.64 0.66 8.28 1 11 C0.01 11.495 0.01 11.495 -1 12 C-2.20272819 9.59454362 -2.10071472 8.05003047 -2.0625 5.375 C-2.05347656 4.55773437 -2.04445313 3.74046875 -2.03515625 2.8984375 C-2.02355469 2.27195313 -2.01195312 1.64546875 -2 1 C-1.34 0.67 -0.68 0.34 0 0 Z " fill="#EBF4F6" transform="translate(473,206)"/>
<path d="M0 0 C0.99 0 1.98 0 3 0 C3 0.66 3 1.32 3 2 C4.98 1.67 6.96 1.34 9 1 C9 2.32 9 3.64 9 5 C6.69 5 4.38 5 2 5 C1.34 3.35 0.68 1.7 0 0 Z " fill="#EDF7F7" transform="translate(135,106)"/>
<path d="M0 0 C0.33 0 0.66 0 1 0 C1.28571429 7.42857143 1.28571429 7.42857143 -1 11 C-1.66 11 -2.32 11 -3 11 C-2.25 3.375 -2.25 3.375 0 0 Z " fill="#ECF3F3" transform="translate(223,318)"/>
<path d="M0 0 C1.32 0 2.64 0 4 0 C4 0.66 4 1.32 4 2 C4.99 2.33 5.98 2.66 7 3 C4.69 3 2.38 3 0 3 C0 5.97 0 8.94 0 12 C-0.33 12 -0.66 12 -1 12 C-1.02687279 10.18757948 -1.04633715 8.37504767 -1.0625 6.5625 C-1.07410156 5.55316406 -1.08570313 4.54382813 -1.09765625 3.50390625 C-1 1 -1 1 0 0 Z " fill="#EEF4F7" transform="translate(266,259)"/>
<path d="M0 0 C0 3 0 3 -2.375 5.4375 C-3.24125 6.283125 -4.1075 7.12875 -5 8 C-6.29519995 10.16620544 -6.29519995 10.16620544 -7 12 C-7.3841073 9.38807037 -7.40150173 7.62856826 -5.95703125 5.3671875 C-4.14567494 3.16806283 -2.57347501 1.2867375 0 0 Z " fill="#3C2E8D" transform="translate(138,347)"/>
<path d="M0 0 C1.98 0 3.96 0 6 0 C5.01 0.66 4.02 1.32 3 2 C2.27617533 4.05925139 2.27617533 4.05925139 2 6 C3.32 6.33 4.64 6.66 6 7 C4.02 7 2.04 7 0 7 C0 4.69 0 2.38 0 0 Z " fill="#E07503" transform="translate(356,264)"/>
<path d="M0 0 C0.66 0.33 1.32 0.66 2 1 C1.3125 2.9375 1.3125 2.9375 0 5 C-2.625 5.75 -2.625 5.75 -5 6 C-5 5.01 -5 4.02 -5 3 C-2.625 1.25 -2.625 1.25 0 0 Z " fill="#EAF8F9" transform="translate(181,240)"/>
<path d="M0 0 C-0.57234375 0.26554688 -1.1446875 0.53109375 -1.734375 0.8046875 C-4.1076012 2.05676891 -6.12213286 3.4936352 -8.25 5.125 C-8.95640625 5.66382813 -9.6628125 6.20265625 -10.390625 6.7578125 C-10.92171875 7.16773438 -11.4528125 7.57765625 -12 8 C-9.83199867 1.31532922 -6.98981916 -0.47657858 0 0 Z " fill="#453691" transform="translate(150,182)"/>
<path d="M0 0 C1.9375 0.3125 1.9375 0.3125 4 1 C4.33 1.99 4.66 2.98 5 4 C4.01 4.99 3.02 5.98 2 7 C2 6.34 2 5.68 2 5 C1.34 5 0.68 5 0 5 C0 3.35 0 1.7 0 0 Z " fill="#EAF1F3" transform="translate(300,64)"/>
<path d="M0 0 C0.33 0 0.66 0 1 0 C1.66 3.96 2.32 7.92 3 12 C2.34 12 1.68 12 1 12 C0.63597631 10.56496445 0.28413409 9.12683494 -0.0625 7.6875 C-0.25972656 6.88699219 -0.45695312 6.08648437 -0.66015625 5.26171875 C-1 3 -1 3 0 0 Z " fill="#F2F6F5" transform="translate(277,406)"/>
<path d="M0 0 C0.99 0 1.98 0 3 0 C5.125 6.75 5.125 6.75 4 9 C3.34 9 2.68 9 2 9 C1.34 6.03 0.68 3.06 0 0 Z " fill="#EEF8F8" transform="translate(268,74)"/>
<path d="M0 0 C0.66 0 1.32 0 2 0 C2 1.98 2 3.96 2 6 C1.34 5.67 0.68 5.34 0 5 C0 3.35 0 1.7 0 0 Z M-6 5 C-3.525 5.99 -3.525 5.99 -1 7 C-1.33 7.66 -1.66 8.32 -2 9 C-3.32 8.67 -4.64 8.34 -6 8 C-6 7.01 -6 6.02 -6 5 Z " fill="#ECF4F6" transform="translate(191,282)"/>
<path d="M0 0 C0.33 0 0.66 0 1 0 C1.40178571 8.03571429 1.40178571 8.03571429 -2 12 C-1.85962479 10.18706911 -1.71255111 8.3746557 -1.5625 6.5625 C-1.48128906 5.55316406 -1.40007812 4.54382813 -1.31640625 3.50390625 C-1 1 -1 1 0 0 Z " fill="#EDF2F3" transform="translate(279,246)"/>
<path d="M0 0 C0.66 0 1.32 0 2 0 C2.185625 1.2065625 2.185625 1.2065625 2.375 2.4375 C2.58125 3.283125 2.7875 4.12875 3 5 C3.66 5.33 4.32 5.66 5 6 C3.68 6.33 2.36 6.66 1 7 C0.67 4.69 0.34 2.38 0 0 Z " fill="#F1F6F5" transform="translate(273,397)"/>
<path d="M0 0 C-0.33 0.99 -0.66 1.98 -1 3 C-4.0625 4.1875 -4.0625 4.1875 -7 5 C-7 3.68 -7 2.36 -7 1 C-4.50935112 0.31292445 -2.62113708 0 0 0 Z " fill="#ECF7F9" transform="translate(242,320)"/>
<path d="M0 0 C0.33 0 0.66 0 1 0 C1.33 3.63 1.66 7.26 2 11 C1.34 10.67 0.68 10.34 0 10 C-1.29411765 2.58823529 -1.29411765 2.58823529 0 0 Z " fill="#ECF3F6" transform="translate(356,244)"/>
<path d="M0 0 C0.99 0.33 1.98 0.66 3 1 C3 2.98 3 4.96 3 7 C2.01 7.495 2.01 7.495 1 8 C0.67 5.36 0.34 2.72 0 0 Z " fill="#E1F2F7" transform="translate(569,337)"/>
<path d="M0 0 C0.99 0 1.98 0 3 0 C3.33 1.65 3.66 3.3 4 5 C5.32 5.33 6.64 5.66 8 6 C6.35 6.66 4.7 7.32 3 8 C0 2.25 0 2.25 0 0 Z " fill="#DB9221" transform="translate(388,265)"/>
<path d="M0 0 C-0.66 2.64 -1.32 5.28 -2 8 C-4.35953094 5.64046906 -4.49141413 4.22104383 -5 1 C-2 0 -2 0 0 0 Z " fill="#EDF5F5" transform="translate(292,501)"/>
<path d="M0 0 C0.99 0 1.98 0 3 0 C3 1.98 3 3.96 3 6 C2.01 6 1.02 6 0 6 C0 4.02 0 2.04 0 0 Z " fill="#EAEFED" transform="translate(397,284)"/>
<path d="M0 0 C1.2065625 0.0309375 1.2065625 0.0309375 2.4375 0.0625 C2.1075 1.0525 1.7775 2.0425 1.4375 3.0625 C0.4475 3.0625 -0.5425 3.0625 -1.5625 3.0625 C-2.2225 4.0525 -2.8825 5.0425 -3.5625 6.0625 C-3.605221 4.39638095 -3.60313832 2.72867115 -3.5625 1.0625 C-2.5625 0.0625 -2.5625 0.0625 0 0 Z " fill="#F3F9F9" transform="translate(237.5625,263.9375)"/>
</svg>
